<svg xmlns="http://www.w3.org/2000/svg" width="39.502" height="38.776" viewBox="0 0 39.502 38.776"><path d="M36.41,29.991a12.436,12.436,0,0,0-5.212.752c-.4.161-1.048.161-1.1.672.215.215.242.564.43.86a6.3,6.3,0,0,0,1.4,1.639c.564.43,1.129.86,1.719,1.236,1.048.645,2.23,1.021,3.251,1.666.591.376,1.182.86,1.773,1.263.3.215.484.564.86.7V38.7c-.188-.242-.242-.591-.43-.86-.268-.269-.537-.511-.806-.779A12.743,12.743,0,0,0,35.5,34.343c-.86-.591-2.741-1.4-3.09-2.391l-.054-.054a10.926,10.926,0,0,0,1.854-.43c.913-.242,1.746-.188,2.687-.43.43-.107.86-.242,1.289-.376v-.242c-.483-.484-.833-1.128-1.343-1.585a35.822,35.822,0,0,0-4.433-3.3c-.833-.537-1.908-.887-2.794-1.343-.322-.161-.86-.242-1.048-.511a10.836,10.836,0,0,1-1.1-2.069c-.779-1.478-1.531-3.117-2.2-4.675a28.575,28.575,0,0,0-1.37-3.063,27.079,27.079,0,0,0-10.4-10.048,12.914,12.914,0,0,0-3.439-1.1c-.671-.027-1.343-.081-2.015-.108A10.689,10.689,0,0,1,6.8,1.674C5.272.706,1.322-1.389.194,1.378-.532,3.124,1.269,4.844,1.886,5.731a12.655,12.655,0,0,1,1.37,2.015c.188.456.242.94.43,1.424a32.258,32.258,0,0,0,1.4,3.6,12.99,12.99,0,0,0,.994,1.666c.215.3.591.43.672.913a7.7,7.7,0,0,0-.618,2.015,11.836,11.836,0,0,0,.779,9.027c.43.671,1.451,2.15,2.821,1.585,1.209-.483.94-2.015,1.289-3.358.081-.323.027-.537.188-.752v.054c.376.752.752,1.478,1.1,2.23a15.343,15.343,0,0,0,3.493,3.6c.645.483,1.155,1.316,1.961,1.612V31.28h-.054a2.971,2.971,0,0,0-.618-.537,13.026,13.026,0,0,1-1.4-1.612,34.569,34.569,0,0,1-3.009-4.89c-.43-.833-.806-1.746-1.155-2.579-.161-.323-.161-.806-.43-.967a10.113,10.113,0,0,0-1.29,1.827,15.149,15.149,0,0,0-.752,4.057c-.107.027-.054,0-.108.054-.86-.215-1.155-1.1-1.478-1.854a11.619,11.619,0,0,1-.242-7.173c.188-.564.994-2.337.672-2.875-.161-.511-.7-.806-.994-1.209A10.825,10.825,0,0,1,5.943,11.8c-.645-1.5-.967-3.17-1.666-4.675A14.3,14.3,0,0,0,2.934,5.059a13.3,13.3,0,0,1-1.478-2.1c-.134-.3-.322-.779-.107-1.1a.428.428,0,0,1,.376-.349c.349-.3,1.343.08,1.692.242A13.694,13.694,0,0,1,6.078,3.1c.376.269.779.779,1.263.914H7.9c.86.188,1.827.054,2.633.3A17.169,17.169,0,0,1,14.406,6.16a23.836,23.836,0,0,1,8.382,9.188c.322.618.457,1.182.752,1.827.564,1.317,1.263,2.66,1.827,3.95a17.668,17.668,0,0,0,1.908,3.6c.4.564,2.015.86,2.74,1.155a19.056,19.056,0,0,1,1.854.752c.913.564,1.827,1.209,2.687,1.827.43.322,1.773.994,1.854,1.531Z" transform="translate(-0.024 0)" fill="#00546b"/><path d="M52.155,43.022a4.257,4.257,0,0,0-1.1.134v.054h.054a8.657,8.657,0,0,0,.86,1.1c.215.43.4.86.618,1.29l.054-.054A1.516,1.516,0,0,0,53.2,44.2a6.017,6.017,0,0,1-.322-.564C52.72,43.371,52.37,43.237,52.155,43.022Z" transform="translate(-43.174 -36.378)" fill="#00546b"/></svg>