<svg xmlns="http://www.w3.org/2000/svg" width="39.831" height="43.893" viewBox="0 0 39.831 43.893"><path d="M18.721,1.053a3.681,3.681,0,0,1,3.593,0Q30.52,5.69,38.727,10.323a3.379,3.379,0,0,1,1.706,2.91v18.6A3.415,3.415,0,0,1,38.6,34.8q-8.179,4.611-16.354,9.226a3.577,3.577,0,0,1-3.633-.1q-2.452-1.421-4.907-2.837a2.889,2.889,0,0,1-.947-.682c.209-.281.581-.316.884-.439a11.453,11.453,0,0,0,1.936-.9.452.452,0,0,1,.5.03c1.4.8,2.783,1.626,4.186,2.42.3.173.6-.057.858-.2q8.026-4.536,16.058-9.062a.531.531,0,0,0,.292-.523q.006-9.2,0-18.406a.575.575,0,0,0-.343-.574q-8.151-4.59-16.3-9.186a.566.566,0,0,0-.64,0Q12.049,8.161,3.9,12.757a.568.568,0,0,0-.345.571q0,9.2,0,18.407a.52.52,0,0,0,.3.516q2.175,1.233,4.352,2.458a3.363,3.363,0,0,0,2.721.364,2.064,2.064,0,0,0,1.336-1.94c.008-6.1,0-12.2.006-18.3a.459.459,0,0,1,.5-.469c.7,0,1.394-.009,2.091,0a.482.482,0,0,1,.455.558c0,6.138.008,12.276,0,18.413a4.669,4.669,0,0,1-2.183,4.216,6.724,6.724,0,0,1-6.009-.165C5.523,36.6,4,35.657,2.436,34.8A3.407,3.407,0,0,1,.6,31.831v-18.6a3.385,3.385,0,0,1,1.765-2.947Q10.546,5.671,18.721,1.053Z" transform="translate(-0.603 -0.584)" fill="#8cc84b"/><path d="M111.368,85.663a12.9,12.9,0,0,1,7.063,1.081,5.341,5.341,0,0,1,2.6,4.622.5.5,0,0,1-.543.368c-.69,0-1.38.009-2.07,0a.533.533,0,0,1-.5-.517,3.151,3.151,0,0,0-1.507-2.177,8.935,8.935,0,0,0-4.135-.592,5.613,5.613,0,0,0-2.96.737,1.876,1.876,0,0,0-.624,2.1c.222.527.83.7,1.327.853,2.865.749,5.9.675,8.713,1.661a4.1,4.1,0,0,1,2.7,2.4,5.132,5.132,0,0,1-.869,4.9,6.86,6.86,0,0,1-3.683,1.985,17.694,17.694,0,0,1-5.559.236,8.76,8.76,0,0,1-4.89-1.84,5.132,5.132,0,0,1-1.653-4.048.464.464,0,0,1,.508-.409c.695-.006,1.389-.008,2.084,0a.487.487,0,0,1,.5.481,3.158,3.158,0,0,0,1.175,2.217c1.412.911,3.184.849,4.8.874,1.339-.059,2.843-.077,3.936-.963a2.174,2.174,0,0,0,.592-2.076c-.169-.614-.811-.9-1.362-1.086-2.829-.895-5.9-.57-8.7-1.582a4.234,4.234,0,0,1-2.674-2.33,4.773,4.773,0,0,1,.953-4.966,7.694,7.694,0,0,1,4.776-1.919Z" transform="translate(-88.494 -72.312)" fill="#8cc84b"/></svg>