<svg xmlns="http://www.w3.org/2000/svg" width="39.89" height="45.145" viewBox="0 0 39.89 45.145"><path d="M0,0,2.8,39.511l17.141,5.634,17.141-5.634L39.89,0ZM0,0" transform="translate(0 0)" fill="#ff7816"/><path d="M246.144,0l-2.8,39.511L226.2,45.145V0Zm0,0" transform="translate(-206.254 0)" fill="#ff4b00"/><path d="M105.987,81.291h-19.6l.476,6.613h18.649l-1.138,16.012L93.528,107.54l-10.845-3.624-.37-5.343H87.6l.106,1.455,5.82,1.931,5.82-1.931.476-6.834H81.916L80.7,76h25.659Zm0,0" transform="translate(-73.583 -69.299)" fill="#ececf1"/><g transform="translate(19.945 6.701)"><path d="M238.183,211l-1.138,16.012L226.2,230.636v-5.582l5.82-1.931.476-6.833h-6.3V211Zm0,0" transform="translate(-226.2 -199.096)" fill="#e2e2e7"/><path d="M239.028,76l-.37,5.29H226.2V76Zm0,0" transform="translate(-226.199 -76)" fill="#e2e2e7"/></g></svg>