<svg xmlns="http://www.w3.org/2000/svg" width="53.573" height="53.573" viewBox="0 0 53.573 53.573"><g transform="translate(0 0)"><rect width="53.573" height="53.573" fill="#ff26be"/><rect width="48.859" height="48.859" transform="translate(2.357 2.357)" fill="#2e001f"/><g transform="translate(10.053 14.342)"><path d="M114.774,137.4H110.59l-4.492,9.4-4.553-9.4H97.234l6.1,12.2-6.319,12.492h4.26l4.573-9.574,4.626,9.574h4.611l-6.513-12.639Zm11.569,0v6.278h-1.206c-4.115,0-9.09,2.654-9.09,9.432,0,5.24,2.655,9.179,8.31,9.179,4.164,0,6.126-1.44,6.126-1.44V137.4Zm0,21.283a4.4,4.4,0,0,1-1.6.21c-1.125,0-4.575-.5-4.575-5.966s3.965-5.909,4.918-5.909a2.03,2.03,0,0,1,1.258.267v11.4Z" transform="translate(-97.016 -137.396)" fill="#ffd9f2"/></g></g></svg>