<svg xmlns="http://www.w3.org/2000/svg" width="53.573" height="27.887" viewBox="0 0 53.573 27.887"><ellipse cx="26.786" cy="13.944" rx="26.786" ry="13.944" transform="translate(0 0)" fill="#8993be"/><path d="M35.945,35.372l2.936-14.861h6.788c2.935.184,4.4,1.651,4.4,4.22a6.492,6.492,0,0,1-6.6,6.788h-3.3l-.734,3.853Zm4.954-6.6.917-5.5H44.2c1.284,0,2.2.55,2.2,1.651-.183,3.119-1.651,3.67-3.3,3.853H40.9Zm8.491,2.752,2.935-14.861h3.486l-.734,3.853h3.3c2.936.184,4.036,1.651,3.67,3.486l-1.284,7.522H57.1l1.284-6.788c.183-.917.183-1.468-1.1-1.468H54.527l-1.651,8.256Zm11.14,3.853,2.935-14.861h6.788c2.936.184,4.4,1.651,4.4,4.22a6.492,6.492,0,0,1-6.6,6.788h-3.3l-.734,3.853Zm4.953-6.6.917-5.5h2.385c1.284,0,2.2.55,2.2,1.651-.183,3.119-1.651,3.67-3.3,3.853h-2.2Z" transform="translate(-28.423 -13.172)" fill="#232531" fill-rule="evenodd"/></svg>