<svg xmlns="http://www.w3.org/2000/svg" width="53.573" height="53.573" viewBox="0 0 53.573 53.573"><g transform="translate(0 0)"><rect width="53.573" height="53.573" fill="#3cf2a5"/><rect width="48.858" height="48.858" transform="translate(2.357 2.357)" fill="#01271a"/><g transform="translate(10.065 14.629)"><path d="M103.512,140.135c-2,0-4.316.037-6.166.111-.185.037-.216.111-.216.259v23.537c0,.259.062.333.216.333,1.757.037,3.361.074,5.55.074,4.193,0,11.1-1.887,11.1-12.435C114,144.909,110.48,140.135,103.512,140.135Zm-.493,20.8c-.863,0-1.6,0-2.158-.037V143.762c.278-.037,1.264-.074,2.652-.074,4.224,0,6.66,2.849,6.66,8.438C110.172,158.232,107.335,160.934,103.019,160.934Zm22.615-14.66c-2.9-.229-7.751,1.248-7.751,1.248-.177,0-.208.1-.208.291.062.728.01,1.789.01,3.038h.021v13.265c0,.26.052.333.208.333h3.173c.177,0,.24-.073.24-.291V150.4a5.367,5.367,0,0,1,2.819-.749c1.811,0,2.8,1.633,2.8,4.016v10.446c0,.219.093.333.271.333h3.142c.145,0,.239-.1.239-.291V153.712C130.6,147.772,127.954,146.461,125.634,146.273Z" transform="translate(-97.13 -140.135)" fill="#d4fdef"/></g></g></svg>