<svg xmlns="http://www.w3.org/2000/svg" width="39.83" height="29.856" viewBox="0 0 39.83 29.856"><path d="M34.172,17.385a8.206,8.206,0,0,0-3.61.84,7.425,7.425,0,0,1-.809-1.867,5.165,5.165,0,0,1-.07-1.572,12.592,12.592,0,0,1,.475-1.7c-.008-.07-.086-.412-.887-.42s-1.494.156-1.572.366a8.935,8.935,0,0,0-.335,1.19A28.316,28.316,0,0,1,24.93,18.91a4.778,4.778,0,0,1-.552-1.369,5.164,5.164,0,0,1-.07-1.571,12.6,12.6,0,0,1,.475-1.7c-.008-.07-.086-.412-.887-.42s-1.494.156-1.572.366-.163.708-.335,1.19-2.108,4.808-2.614,5.936c-.257.576-.482,1.035-.646,1.346s-.008.023-.023.054l-.218.412v.008c-.109.195-.226.381-.28.381a2.6,2.6,0,0,1,.016-1.237c.288-1.5.988-3.843.98-3.929,0-.039.132-.451-.451-.661a.709.709,0,0,0-.817.14c-.047,0-.086.124-.086.124s.63-2.637-1.206-2.637c-1.151,0-2.739,1.253-3.524,2.4-.5.272-1.556.848-2.676,1.463-.428.233-.871.482-1.291.708l-.085-.094c-2.225-2.373-6.341-4.053-6.17-7.243.062-1.159.467-4.217,7.9-7.92,6.092-3.034,10.97-2.2,11.818-.35,1.206,2.645-2.606,7.562-8.939,8.27a4.75,4.75,0,0,1-4-1.011c-.335-.366-.381-.381-.506-.311-.2.109-.078.436,0,.63a3.756,3.756,0,0,0,2.287,1.8,12.123,12.123,0,0,0,7.414-.731c3.836-1.486,6.831-5.609,5.952-9.056C23.934.385,18.114-.766,12.614,1.187A27.69,27.69,0,0,0,3.239,6.563C.2,9.395-.278,11.869-.076,12.9c.708,3.664,5.757,6.053,7.78,7.819-.1.054-.195.109-.28.156-1.011.5-4.863,2.513-5.827,4.645-1.089,2.412.171,4.147,1.011,4.38a6.217,6.217,0,0,0,6.7-2.715,6.719,6.719,0,0,0,.6-6.185l-.023-.047.794-.467c.514-.3,1.019-.584,1.463-.825a9.687,9.687,0,0,0-.521,2.645,5.516,5.516,0,0,0,1.19,3.843,1.317,1.317,0,0,0,.957.311c.856,0,1.245-.708,1.673-1.556.529-1.035,1-2.233,1-2.233s-.584,3.244,1.011,3.244c.584,0,1.167-.755,1.432-1.144v.008s.016-.023.047-.078.064-.1.093-.148v-.016c.233-.4.755-1.33,1.533-2.863,1-1.976,1.968-4.45,1.968-4.45a14.2,14.2,0,0,0,.381,1.6,15.336,15.336,0,0,0,.832,1.867c-.233.327-.373.514-.373.514l.008.008c-.187.249-.4.514-.615.778a22.612,22.612,0,0,0-1.867,2.342.641.641,0,0,0,.171.856,1.557,1.557,0,0,0,.98.156,4.367,4.367,0,0,0,1.463-.335,5.065,5.065,0,0,0,1.26-.661,2.806,2.806,0,0,0,1.206-2.482,4.99,4.99,0,0,0-.459-1.751c.07-.1.14-.2.21-.311a32.841,32.841,0,0,0,2.178-3.773,14.2,14.2,0,0,0,.381,1.6,11.236,11.236,0,0,0,.708,1.6,6.917,6.917,0,0,0-2.124,2.746c-.459,1.323-.1,1.922.576,2.062a2.071,2.071,0,0,0,1.066-.218,4.83,4.83,0,0,0,1.346-.692,3.043,3.043,0,0,0,1.486-2.458A4.713,4.713,0,0,0,31,19.221a7.579,7.579,0,0,1,3.859-.443c3.462.4,4.147,2.567,4.015,3.47a2.324,2.324,0,0,1-1.1,1.556c-.241.148-.319.2-.3.311.031.163.14.156.35.125a2.693,2.693,0,0,0,1.883-2.4c.093-2.14-1.937-4.474-5.539-4.451Zm-26.7,9c-1.144,1.253-2.754,1.727-3.439,1.323-.739-.428-.451-2.272.957-3.6a18.306,18.306,0,0,1,2.7-2.015c.163-.1.412-.249.708-.428a.83.83,0,0,1,.078-.047c.054-.031.117-.07.179-.109a4.963,4.963,0,0,1-1.183,4.878ZM15.835,20.7c-.4.973-1.237,3.47-1.743,3.33-.436-.117-.7-2.007-.086-3.874a8.649,8.649,0,0,1,1.362-2.5c.63-.7,1.315-.934,1.486-.646C17.056,17.385,16.084,20.092,15.835,20.7Zm6.9,3.3c-.171.086-.327.148-.4.1-.054-.031.07-.148.07-.148s.864-.926,1.206-1.354c.195-.249.428-.537.677-.864v.093A2.874,2.874,0,0,1,22.736,24Zm5.321-1.214c-.124-.093-.109-.381.311-1.284a4.81,4.81,0,0,1,1.183-1.525,1.925,1.925,0,0,1,.117.669A2.189,2.189,0,0,1,28.057,22.784Z" transform="translate(0.116 -0.241)" fill="#cf649a"/></svg>