<svg xmlns="http://www.w3.org/2000/svg" width="39.83" height="41.003" viewBox="0 0 39.83 41.003"><path d="M39.808,9.276a.649.649,0,0,1,.022.168v8.8a.642.642,0,0,1-.322.557l-7.387,4.253v8.43a.643.643,0,0,1-.321.557L16.38,40.918a.689.689,0,0,1-.112.047c-.014,0-.028.014-.043.018a.646.646,0,0,1-.329,0c-.018,0-.034-.014-.051-.021a.667.667,0,0,1-.106-.043L.322,32.042A.643.643,0,0,1,0,31.485V5.081a.656.656,0,0,1,.022-.168c0-.018.016-.035.022-.054a.632.632,0,0,1,.041-.1A.6.6,0,0,1,.13,4.7a.654.654,0,0,1,.057-.075A.627.627,0,0,1,.25,4.58a.523.523,0,0,1,.071-.055h0L8.03.086a.643.643,0,0,1,.642,0l7.709,4.438h0a.786.786,0,0,1,.071.055.759.759,0,0,1,.063.048.751.751,0,0,1,.058.075.592.592,0,0,1,.043.057.67.67,0,0,1,.042.1c.006.018.018.035.022.055a.649.649,0,0,1,.022.168V21.573l6.424-3.7V9.443a.648.648,0,0,1,.022-.167c.006-.019.016-.036.022-.055a.723.723,0,0,1,.042-.1c.012-.021.03-.038.043-.057a.66.66,0,0,1,.058-.075.616.616,0,0,1,.063-.048.648.648,0,0,1,.071-.055h0l7.71-4.438a.643.643,0,0,1,.642,0l7.709,4.438a.709.709,0,0,1,.072.055c.02.016.043.03.062.048a.75.75,0,0,1,.058.075.484.484,0,0,1,.043.057.636.636,0,0,1,.042.1.459.459,0,0,1,.022.055Zm-1.263,8.6V10.555l-2.7,1.553-3.727,2.146v7.319l6.425-3.7Zm-7.709,13.24V23.79l-3.666,2.094L16.7,31.858v7.393ZM1.285,6.192V31.113L15.418,39.25V31.859L8.034,27.68l0,0,0,0a30.176,30.176,0,0,0-.13-.1l0,0a.611.611,0,0,1-.053-.067.686.686,0,0,1-.048-.063v0a.512.512,0,0,1-.034-.08.475.475,0,0,1-.03-.072h0a.614.614,0,0,1-.013-.094.557.557,0,0,1-.01-.072V9.891L3.983,7.744l-2.7-1.551ZM8.352,1.384l-6.423,3.7,6.421,3.7,6.422-3.7L8.35,1.384Zm3.34,23.073,3.726-2.145V6.192l-2.7,1.553L8.994,9.891v16.12ZM31.479,5.747l-6.422,3.7,6.422,3.7,6.421-3.7Zm-.643,8.507L27.11,12.108l-2.7-1.553v7.319l3.726,2.145,2.7,1.554ZM16.059,30.747l9.42-5.378,4.709-2.687L23.77,18.987l-7.389,4.254L9.648,27.118Z" transform="translate(0 0)" fill="#ff2d20"/></svg>