<svg xmlns="http://www.w3.org/2000/svg" width="39.89" height="39.89" viewBox="0 0 39.89 39.89"><path d="M0,0H39.89V39.89H0Z" fill="#f0db4f"/><path d="M302.641,489.517c-.292-1.82-1.479-3.348-4.994-4.774-1.221-.561-2.582-.963-2.988-1.888a2.06,2.06,0,0,1-.072-1.168,1.92,1.92,0,0,1,2.525-1.084,2.778,2.778,0,0,1,1.623,1.505c1.721-1.115,1.718-1.107,2.92-1.873a7.441,7.441,0,0,0-.963-1.289,5.624,5.624,0,0,0-4.7-1.706c-.391.049-.785.1-1.176.152a5.332,5.332,0,0,0-2.829,1.668,5.222,5.222,0,0,0,.948,7.436c2.264,1.7,5.589,2.086,6.014,3.674.413,1.945-1.429,2.575-3.261,2.351a4.274,4.274,0,0,1-2.912-2.214c-1.494.865-1.494.865-3.03,1.748A6.74,6.74,0,0,0,291.1,493.9c2.889,2.931,10.12,2.787,11.417-1.649A5.478,5.478,0,0,0,302.641,489.517ZM287.7,477.474H283.97c0,3.223-.015,6.423-.015,9.646,0,2.051.106,3.932-.227,4.508-.546,1.134-1.96.993-2.6.773a3.2,3.2,0,0,1-1.376-1.43,1.918,1.918,0,0,0-.212-.341q-1.519.927-3.033,1.858a6,6,0,0,0,2.2,2.518,7.243,7.243,0,0,0,5.331.656,4.711,4.711,0,0,0,3.011-2.358c.849-1.566.667-3.462.66-5.559C287.72,484.326,287.7,480.906,287.7,477.474Z" transform="translate(-266.016 -459.141)" fill="#323330"/></svg>