<svg xmlns="http://www.w3.org/2000/svg" width="40.334" height="39.34" viewBox="0 0 40.334 39.34">
  <path id="iconfinder_github_317712" d="M20.174,0A20.17,20.17,0,0,0,13.8,39.3c1.009.184,1.326-.414,1.326-.948,0-.479.01-1.818,0-3.5C9.518,36.075,8.355,32.2,8.355,32.2a5.34,5.34,0,0,0-2.238-2.95c-1.831-1.251.137-1.227.137-1.227A4.24,4.24,0,0,1,9.345,30.1c1.8,3.08,4.719,2.19,5.867,1.676a4.316,4.316,0,0,1,1.282-2.7c-4.478-.509-9.186-2.239-9.186-9.967A7.793,7.793,0,0,1,9.384,13.7a7.24,7.24,0,0,1,.2-5.338s1.693-.542,5.545,2.069a19.133,19.133,0,0,1,10.1,0c3.852-2.61,5.542-2.069,5.542-2.069a7.253,7.253,0,0,1,.2,5.338,7.791,7.791,0,0,1,2.073,5.411c0,7.748-4.715,9.453-9.208,9.951a4.77,4.77,0,0,1,1.381,3.715v5.583c0,.54.325,1.136,1.349.941A20.171,20.171,0,0,0,20.174,0Z" transform="translate(-0.008)" fill="#fff" fill-rule="evenodd"/>
</svg>
