<svg xmlns="http://www.w3.org/2000/svg" width="20.896" height="18.74" viewBox="0 0 20.896 18.74">
  <path id="iconfinder_menu-alt_134216" d="M3.493,9.748H21.4A1.717,1.717,0,0,0,22.9,7.874,1.717,1.717,0,0,0,21.4,6H3.493A1.717,1.717,0,0,0,2,7.874,1.717,1.717,0,0,0,3.493,9.748ZM21.4,13.5H3.493A1.717,1.717,0,0,0,2,15.37a1.717,1.717,0,0,0,1.493,1.874H21.4A1.717,1.717,0,0,0,22.9,15.37,1.717,1.717,0,0,0,21.4,13.5Zm0,7.5H3.493A1.717,1.717,0,0,0,2,22.866,1.717,1.717,0,0,0,3.493,24.74H21.4A1.717,1.717,0,0,0,22.9,22.866,1.717,1.717,0,0,0,21.4,20.992Z" transform="translate(-2 -6)" fill="#fee715"/>
</svg>
