<svg id="iconfinder_11-linkedin_104493" xmlns="http://www.w3.org/2000/svg" width="39.093" height="39.34" viewBox="0 0 39.093 39.34">
  <path id="Path_1" data-name="Path 1" d="M30.061,27.085v-.061c-.013.021-.026.041-.04.061Z" transform="translate(-9.04 -9.341)" fill="#fff"/>
  <path id="Path_2" data-name="Path 2" d="M39.7,4.667H6.382A2.854,2.854,0,0,0,3.494,7.485v33.7a2.854,2.854,0,0,0,2.888,2.817H39.7a2.855,2.855,0,0,0,2.89-2.817V7.485A2.855,2.855,0,0,0,39.7,4.667ZM15.343,37.6h-5.9V19.836h5.9ZM12.391,17.409h-.04a3.077,3.077,0,1,1,.078-6.138,3.079,3.079,0,1,1-.039,6.138ZM36.635,37.6h-5.9V28.094c0-2.387-.854-4.016-2.991-4.016a3.234,3.234,0,0,0-3.03,2.16,4.043,4.043,0,0,0-.194,1.44V37.6h-5.9s.078-16.1,0-17.764h5.9v2.514a5.863,5.863,0,0,1,5.322-2.934c3.884,0,6.8,2.54,6.8,8V37.6Z" transform="translate(-3.494 -4.667)" fill="#fff"/>
</svg>
