<svg xmlns="http://www.w3.org/2000/svg" width="345" height="218.634" viewBox="0 0 345 218.634">
  <g id="Group_42" data-name="Group 42" transform="translate(-988.314 -308)">
    <g id="Group_23" data-name="Group 23" transform="translate(988.314 347.948)">
      <path id="Path_123" data-name="Path 123" d="M943.113,489.33a4.491,4.491,0,0,0-5.479-4.176l-5.935-8.388-5.963,2.374,8.547,11.728a4.511,4.511,0,0,0,8.83-1.538Z" transform="translate(-913.587 -395.568)" fill="#a0616a"/>
      <path id="Path_124" data-name="Path 124" d="M961.666,443.464l-10.552-17.8,4.3-11.5-5.856-15.66-.216.093c-.142.061-3.469,1.55-3.962,6.882l-6.729,21.209,17.959,23.365Z" transform="translate(-938.65 -356.916)" fill="#3f3d56"/>
      <path id="Path_125" data-name="Path 125" d="M826.58,358.01a4.5,4.5,0,0,0-3.728,5.8l-7.88,6.583,2.821,5.778,11-9.453a4.526,4.526,0,0,0-2.211-8.71Z" transform="translate(-746.254 -336.894)" fill="#cb8791"/>
      <path id="Path_126" data-name="Path 126" d="M868.294,372.013,851.415,383.94l-11.763-3.41L824.537,387.6l.109.209c.071.137,1.809,3.348,7.148,3.429l21.605,5.088,21.84-19.763Z" transform="translate(-794.635 -343.83)" fill="#3f3d56"/>
      <path id="Path_127" data-name="Path 127" d="M738.841,407.38h5.868l2.791-22.7h-8.66Z" transform="translate(-696.068 -234.157)" fill="#cb8791"/>
      <path id="Path_128" data-name="Path 128" d="M733.264,426.208H721.947v7.146h18.442A7.135,7.135,0,0,0,733.264,426.208Z" transform="translate(-680.431 -254.667)" fill="#2f2e41"/>
      <path id="Path_129" data-name="Path 129" d="M785.314,407.38h5.868l2.791-22.7h-8.66Z" transform="translate(-765.994 -234.157)" fill="#cb8791"/>
      <path id="Path_130" data-name="Path 130" d="M779.737,426.208H768.42v7.146h18.442a7.135,7.135,0,0,0-7.125-7.146Z" transform="translate(-750.357 -254.667)" fill="#2f2e41"/>
      <path id="Path_131" data-name="Path 131" d="M736.423,265.827l.478,33.6.479,44.16,10.53-.96,5.265-60.959,6.7,60.959h10.871l1.1-61.44-3.829-13.44Z" transform="translate(-719.189 -175.455)" fill="#2f2e41"/>
      <path id="Path_132" data-name="Path 132" d="M924.252,436.353l1.6-.07-7.451-41.164,3.051-12.442a2.725,2.725,0,0,0-1.683-3.2l-5.489-2.064-1.939-5.348-15.3,1.653-.376,4.18c-1.658.533-15.312,5.093-14.369,10.289.93,5.129,6.42,21.264,6.7,22.081l.961,23.14.118.059c.142.071,10.688,5.272,22.146,5.271a29.058,29.058,0,0,0,12.03-2.387Z" transform="translate(-874.38 -343.856)" fill="#3f3d56"/>
      <ellipse id="Ellipse_22" data-name="Ellipse 22" cx="11.016" cy="11.048" rx="11.016" ry="11.048" transform="translate(19.898 3.467)" fill="#cb8791"/>
      <path id="Path_133" data-name="Path 133" d="M904.587,341.536a3.633,3.633,0,0,0,6.272-2.025,3.716,3.716,0,0,0,0-.715c-.141-1.357-.923-2.589-.736-4.022a2.114,2.114,0,0,1,.385-.987c1.673-2.247,5.6,1,7.179-1.029.968-1.247-.17-3.211.573-4.6.981-1.84,3.885-.932,5.706-1.94,2.027-1.121,1.905-4.239.571-6.136a9.615,9.615,0,0,0-7.3-3.725,19.523,19.523,0,0,0-8.244,1.614c-2.988,1.168-5.951,2.782-7.79,5.417-2.236,3.2-2.451,7.512-1.333,11.259C900.551,336.92,902.873,339.7,904.587,341.536Z" transform="translate(-882.596 -316.326)" fill="#41332e"/>
    </g>
    <path id="Path_182" data-name="Path 182" d="M675.073,266.327H428.6a3.547,3.547,0,0,0-3.543,3.543V436.882a3.547,3.547,0,0,0,3.543,3.543h246.47a3.547,3.547,0,0,0,3.543-3.543V269.87A3.547,3.547,0,0,0,675.073,266.327ZM677.6,436.882a2.532,2.532,0,0,1-2.531,2.531H428.6a2.531,2.531,0,0,1-2.53-2.53V269.87a2.532,2.532,0,0,1,2.53-2.53h246.47a2.532,2.532,0,0,1,2.531,2.53Z" transform="translate(654.698 41.673)" fill="#3f3d56"/>
    <path id="Path_183" data-name="Path 183" d="M515.14,335.327H470.6a3.547,3.547,0,0,0-3.543,3.543v44.537a3.547,3.547,0,0,0,3.543,3.543H515.14a3.547,3.547,0,0,0,3.543-3.543V338.87A3.547,3.547,0,0,0,515.14,335.327Zm2.53,48.079a2.531,2.531,0,0,1-2.53,2.53H470.6a2.531,2.531,0,0,1-2.531-2.53V338.87a2.532,2.532,0,0,1,2.531-2.531H515.14a2.531,2.531,0,0,1,2.53,2.531Z" transform="translate(633.954 7.594)" fill="#3f3d56"/>
    <path id="Path_184" data-name="Path 184" d="M673.387,335.827H628.851a3.3,3.3,0,0,0-3.29,3.29v44.537a3.3,3.3,0,0,0,3.29,3.29h44.537a3.3,3.3,0,0,0,3.29-3.29V339.117a3.3,3.3,0,0,0-3.29-3.29Z" transform="translate(555.67 7.347)" fill="#fee715"/>
    <path id="Path_185" data-name="Path 185" d="M831.387,335.827H786.851a3.3,3.3,0,0,0-3.29,3.29v44.537a3.3,3.3,0,0,0,3.29,3.29h44.537a3.3,3.3,0,0,0,3.29-3.29V339.117a3.3,3.3,0,0,0-3.29-3.29Z" transform="translate(477.634 7.347)" fill="#e6e6e6"/>
    <path id="Path_186" data-name="Path 186" d="M515.387,467.827H470.851a3.3,3.3,0,0,0-3.29,3.29v44.537a3.3,3.3,0,0,0,3.29,3.29h44.537a3.3,3.3,0,0,0,3.29-3.29V471.117A3.3,3.3,0,0,0,515.387,467.827Z" transform="translate(633.707 -57.848)" fill="#e6e6e6"/>
    <path id="Path_187" data-name="Path 187" d="M673.387,467.827H628.851a3.3,3.3,0,0,0-3.29,3.29v44.537a3.3,3.3,0,0,0,3.29,3.29h44.537a3.3,3.3,0,0,0,3.29-3.29V471.117A3.3,3.3,0,0,0,673.387,467.827Z" transform="translate(555.67 -57.848)" fill="#fee715"/>
    <path id="Path_188" data-name="Path 188" d="M831.387,467.827H786.851a3.3,3.3,0,0,0-3.29,3.29v44.537a3.3,3.3,0,0,0,3.29,3.29h44.537a3.3,3.3,0,0,0,3.29-3.29V471.117a3.3,3.3,0,0,0-3.29-3.29Z" transform="translate(477.634 -57.848)" fill="#e6e6e6"/>
    <path id="Path_189" data-name="Path 189" d="M493.887,432.443H449.351a3.293,3.293,0,0,1-3.29-3.29V384.617a3.293,3.293,0,0,1,3.29-3.29h44.537a3.293,3.293,0,0,1,3.29,3.29v44.537a3.293,3.293,0,0,1-3.29,3.29Z" transform="translate(644.326 -15.126)" fill="#fee715"/>
  </g>
</svg>
