<svg xmlns="http://www.w3.org/2000/svg" width="345" height="283.074" viewBox="0 0 345 283.074">
  <g id="Group_48" data-name="Group 48" transform="translate(-684.314 -1173)">
    <g id="Group_29" data-name="Group 29" transform="translate(741.777 1173)">
      <rect id="Rectangle_75" data-name="Rectangle 75" width="240.163" height="124.861" transform="translate(3.755 36.156)" fill="none"/>
      <path id="Path_142" data-name="Path 142" d="M741.526,286.635a1.2,1.2,0,0,0,0,2.406H804.3a1.2,1.2,0,0,0,0-2.406Z" transform="translate(-617.302 -220.848)" fill="#e6e6e6"/>
      <path id="Path_143" data-name="Path 143" d="M741.526,299.518a1.2,1.2,0,0,0,0,2.406h32.048a1.2,1.2,0,0,0,0-2.406Z" transform="translate(-616.56 -226.511)" fill="#e6e6e6"/>
      <path id="Path_142-2" data-name="Path 142" d="M738.561,361.871a1.2,1.2,0,0,0,0,2.406h117.7a1.2,1.2,0,0,0,0-2.406Z" transform="translate(-620.338 -253.923)" fill="#e6e6e6"/>
      <path id="Path_143-2" data-name="Path 143" d="M738.561,374.754a1.2,1.2,0,0,0,0,2.406h86.976a1.2,1.2,0,0,0,0-2.406Z" transform="translate(-616.582 -259.586)" fill="#e6e6e6"/>
      <path id="Path_142-3" data-name="Path 142" d="M738.561,387.345a1.2,1.2,0,0,0,0,2.406h117.7a1.2,1.2,0,0,0,0-2.406Z" transform="translate(-620.338 -265.122)" fill="#e6e6e6"/>
      <path id="Path_143-3" data-name="Path 143" d="M738.561,400.227a1.2,1.2,0,0,0,0,2.406h86.976a1.2,1.2,0,0,0,0-2.406Z" transform="translate(-616.582 -270.785)" fill="#e6e6e6"/>
      <ellipse id="Ellipse_45" data-name="Ellipse 45" cx="9.962" cy="10.476" rx="9.962" ry="10.476" transform="translate(55.028 91.879)" fill="#cb8791"/>
      <path id="Path_211" data-name="Path 211" d="M607.762,329.563s4.649,1.31,7.056,1.833,2.158-.96,2.158-.96,3.155.437,2.989.087,1.328-2.182-.415-4.278-1.245-3.667-1.245-3.667h-1.494l-.415-.611h-2.324a8.87,8.87,0,0,0-7.136-1.671c-4.566.7-9.965,2.544-10.463,5.425-.068.391-.156.825-.26,1.283-1.249,5.543,1.4,10.729,4.156,15.636.676,1.206,3.947,3.835,3.863,2.031s-2.944-5.856-.952-6.118S608.676,332.968,607.762,329.563Z" transform="translate(-545.76 -235.59)" fill="#2f2e41"/>
      <path id="Path_212" data-name="Path 212" d="M608.876,396.45a36.34,36.34,0,0,1-5.9-1.29v-1.452l1.776-14.356,1.933-2.383H621.4l2.754,15.295.371,2.064c-.727.3-1.462.578-2.212.824-.008,0-.008.009-.016.009-1.042.34-2.1.637-3.166.883a34.887,34.887,0,0,1-4.3.7,30.483,30.483,0,0,1-3.284-.29C610.582,396.45,609.837,396.535,608.876,396.45Z" transform="translate(-549.189 -260.56)" fill="#403f56"/>
      <path id="Path_213" data-name="Path 213" d="M585.52,393.82c-.727-.331-1.429-.688-2.124-1.062l-.3-.161c-.2-.11-.412-.229-.614-.348q-.412-.242-.8-.484c-.25-.153-.509-.314-.759-.476-.016-.009-.024-.017-.04-.017-.872-.586-1.728-1.189-2.552-1.843l-.412-.331-.145-2.446.21-.136,14.092-9.426.194-.127.016-.008,1.987.008v7.779c1.123,1.707,1.882,5.282,2.35,9.961.065.671.121,1.359.178,2.072a33.277,33.277,0,0,1-5.7-.985c-.2-.043-.4-.093-.6-.153a32.229,32.229,0,0,1-3.472-1.172c-.347-.136-.686-.28-1.026-.425l-.032-.017C585.827,393.956,585.666,393.888,585.52,393.82Z" transform="translate(-535.347 -260.554)" fill="#2f2e41"/>
      <path id="Path_214" data-name="Path 214" d="M581.062,399.858q-.412-.242-.8-.484c-.25-.153-.509-.314-.759-.476-.016-.008-.024-.017-.04-.017-.872-.586-1.728-1.189-2.552-1.843l-.412-.331c-.064-.059-.129-.11-.2-.17-.516-.416-1.017-.849-1.5-1.308-.024-.017-.04-.043-.065-.06a5.469,5.469,0,0,1,1.623-.909l.573.178,4.086,1.291.024,1.741Z" transform="translate(-533.924 -268.162)" fill="#2f2e41"/>
      <path id="Path_215" data-name="Path 215" d="M642.831,391.955c-.242.136-.485.272-.727.4-.057.034-.1.06-.153.085-.323.17-.638.34-.961.5-.008.009-.024.009-.024.017-.016.008-.04.017-.056.026-.727.365-1.462.7-2.213,1.019-.727.3-1.462.577-2.212.824-.008,0-.008.009-.016.009-1.042.34-2.1.637-3.166.883a7.348,7.348,0,0,1,.259-2.064l.008-.119.695-11.821-.929-5.07,2.665-.416,15.945,9.362s-1.057,1.82-7.34,5.754C644.017,391.664,642.685,391.224,642.831,391.955Z" transform="translate(-563.963 -260.234)" fill="#2f2e41"/>
      <path id="Path_216" data-name="Path 216" d="M590.829,351.462c-1.05.1-2.116.153-3.182.153-1.034,0-2.059-.043-3.085-.144.065.671.121,1.359.178,2.072.961.085,1.938.127,2.907.127a31.471,31.471,0,0,0,3.359-.17,34.877,34.877,0,0,0,4.3-.7,7.345,7.345,0,0,1,.259-2.064l.008-.119A32.085,32.085,0,0,1,590.829,351.462ZM621.345,303.8c-4.664-14.089-16.82-23.935-30.964-25.08s-27.59,6.627-34.25,19.8a39.117,39.117,0,0,0,3.542,40.932c.323.425.654.849.993,1.257.032.034.048.059.073.085a35,35,0,0,0,2.657,2.879c.226.221.46.442.694.654.025.017.041.042.065.059.485.459.985.892,1.5,1.308.073.059.138.11.2.17l.412.331c.824.654,1.68,1.257,2.552,1.843.016,0,.024.008.04.017.25.161.509.323.759.476s.525.323.8.484c.2.119.412.238.614.348l.3.161c.694.374,1.4.73,2.124,1.062.145.068.307.136.452.2l.032.017c.339.144.678.289,1.026.425a32.242,32.242,0,0,0,3.472,1.172c.2.059.4.11.6.153a33.28,33.28,0,0,0,5.7.985c.961.085,1.938.127,2.907.127a31.446,31.446,0,0,0,3.359-.17,34.865,34.865,0,0,0,4.3-.7c1.066-.246,2.124-.544,3.166-.883.008,0,.008-.008.016-.008.751-.246,1.486-.527,2.213-.824.751-.314,1.486-.654,2.213-1.019.016-.008.04-.017.056-.025,0-.009.016-.009.024-.017.323-.161.638-.331.961-.5.048-.025.1-.051.153-.085.242-.127.484-.263.727-.4.016-.009.024-.017.04-.025.638-.374,1.268-.764,1.89-1.18.17-.11.339-.221.509-.348.25-.161.493-.34.727-.518.315-.229.63-.467.937-.713a2.506,2.506,0,0,0,.291-.229c.751-.594,1.478-1.223,2.172-1.885a38.8,38.8,0,0,0,9.949-40.338ZM610.791,341.95a35.052,35.052,0,0,1-2.746,2.446c-.21.17-.428.34-.646.493-.21.17-.42.331-.638.484-.186.136-.371.272-.565.4-.016.017-.04.025-.056.042-.138.1-.283.2-.42.289-.428.28-.872.561-1.308.824-.1.059-.2.127-.307.187-.057.034-.113.068-.178.1-.242.144-.485.272-.727.408-.032.025-.073.034-.1.059a.059.059,0,0,0-.032.017c-.17.094-.339.178-.509.263-.146.076-.283.153-.428.221-.589.3-1.2.577-1.8.841-.638.272-1.284.518-1.938.747-.162.059-.331.127-.5.178-.767.255-1.534.484-2.318.671a32.081,32.081,0,0,1-4.74.841c-1.05.1-2.116.153-3.182.153-1.034,0-2.06-.042-3.085-.144a31.768,31.768,0,0,1-5.419-1l-.2-.051a29.939,29.939,0,0,1-4.272-1.529c-.072-.034-.153-.06-.218-.093-.081-.034-.153-.059-.218-.093-.081-.034-.153-.068-.226-.1-.606-.28-1.2-.586-1.785-.9l-.275-.153c-.525-.289-1.042-.586-1.55-.917-.177-.1-.363-.221-.541-.34-.2-.127-.4-.263-.6-.4l-.145-.1c-.452-.323-.912-.645-1.348-.994-.307-.238-.606-.467-.9-.713-.194-.153-.388-.314-.573-.484-.121-.093-.242-.2-.364-.314-.161-.144-.323-.289-.484-.442-.25-.212-.485-.45-.711-.671a33.075,33.075,0,0,1-2.576-2.8c-.274-.323-.533-.645-.783-.985a2.038,2.038,0,0,1-.162-.212c-11.333-15.045-9.23-36.84,4.744-49.186a32.576,32.576,0,0,1,46.888,3.574A36.789,36.789,0,0,1,610.791,341.95Z" transform="translate(-523.285 -217.32)" fill="#2f2e41"/>
      <g id="Group_28" data-name="Group 28" transform="translate(0 0)">
        <path id="Path_217" data-name="Path 217" d="M708.58,266.327h-279.5a4.022,4.022,0,0,0-4.017,4.017v189.4a4.022,4.022,0,0,0,4.017,4.017h279.5a4.022,4.022,0,0,0,4.018-4.017v-189.4a4.022,4.022,0,0,0-4.017-4.017Zm2.87,193.413a2.871,2.871,0,0,1-2.87,2.87h-279.5a2.871,2.871,0,0,1-2.87-2.87v-189.4a2.871,2.871,0,0,1,2.87-2.87h279.5a2.871,2.871,0,0,1,2.87,2.87Z" transform="translate(-425.061 -266.327)" fill="#FEE715"/>
        <rect id="Rectangle_26" data-name="Rectangle 26" width="286.388" height="1.148" transform="translate(0.574 16.093)" fill="#FEE715"/>
        <circle id="Ellipse_46" data-name="Ellipse 46" cx="3.444" cy="3.444" r="3.444" transform="translate(6.887 5.166)" fill="#FEE715"/>
        <circle id="Ellipse_47" data-name="Ellipse 47" cx="3.444" cy="3.444" r="3.444" transform="translate(16.787 5.166)" fill="#FEE715"/>
        <circle id="Ellipse_48" data-name="Ellipse 48" cx="3.444" cy="3.444" r="3.444" transform="translate(26.688 5.166)" fill="#FEE715"/>
      </g>
    </g>
    <g id="Group_30" data-name="Group 30" transform="translate(684.314 1190.59)">
      <path id="Path_197" data-name="Path 197" d="M163.435,475.909h6.533l3.108-26.5h-9.642Z" transform="translate(-134.22 -217.085)" fill="#cb8791"/>
      <path id="Path_198" data-name="Path 198" d="M308.406,688.122h12.866a8.419,8.419,0,0,1,8.2,8.622v.281H308.406Z" transform="translate(-280.857 -431.541)" fill="#2f2e41"/>
      <path id="Path_199" data-name="Path 199" d="M209.435,475.909h6.533l3.108-26.5h-9.642Z" transform="translate(-155.708 -217.085)" fill="#cb8791"/>
      <path id="Path_200" data-name="Path 200" d="M354.406,688.122h12.866a8.419,8.419,0,0,1,8.2,8.622v.281H354.406Z" transform="translate(-302.345 -431.541)" fill="#2f2e41"/>
      <path id="Path_201" data-name="Path 201" d="M266.137,483.282a5.823,5.823,0,0,0,1.4-4.534,5.675,5.675,0,0,0-2.406-4.042l4.539-19.448-9.321,3.493-2.881,17.933a5.853,5.853,0,0,0,1.547,7.348,5.2,5.2,0,0,0,7.12-.749Z" transform="translate(-256.745 -329.17)" fill="#cb8791"/>
      <path id="Path_202" data-name="Path 202" d="M401.375,480.283a5.823,5.823,0,0,1-1.4-4.534,5.676,5.676,0,0,1,2.406-4.042l-4.539-19.448,9.321,3.493,2.881,17.933a5.853,5.853,0,0,1-1.547,7.348,5.2,5.2,0,0,1-7.12-.749Z" transform="translate(-322.633 -327.852)" fill="#cb8791"/>
      <path id="Path_203" data-name="Path 203" d="M142.367,279.167l9.055,111.553,13.249-1.27,5.3-86.215,4.72,34.137.945,54.226,11.99-.841,6.658-58.336-1.633-56.5-45.517-4.847Z" transform="translate(-124.379 -138.688)" fill="#2f2e41"/>
      <ellipse id="Ellipse_44" data-name="Ellipse 44" cx="13.741" cy="14.45" rx="13.741" ry="14.45" transform="translate(29.157 10.069)" fill="#cb8791"/>
      <path id="Path_204" data-name="Path 204" d="M314.694,243.215s6.412,1.806,9.733,2.529,2.977-1.325,2.977-1.325,4.351.6,4.122.12,1.832-3.01-.573-5.9-1.718-5.057-1.718-5.057h-2.061l-.573-.843H323.4s-3.545-3.269-9.842-2.305-13.746,3.51-14.433,7.483c-.093.539-.216,1.138-.358,1.77-1.722,7.646,1.937,14.8,5.732,21.568.933,1.663,5.444,5.29,5.329,2.8s-4.061-8.077-1.313-8.439S315.954,247.911,314.694,243.215Z" transform="translate(-276.148 -230.255)" fill="#41332e"/>
      <path id="Path_205" data-name="Path 205" d="M306.139,308.6h24.2l17.11,95.027s-14.917,1.341-23.443,4.7-22.7-7.68-22.7-7.68Z" transform="translate(-277.54 -264.699)" fill="#403f56"/>
      <path id="Path_206" data-name="Path 206" d="M296.095,319.322V308.59l-2.74-.018-20.018,13.385,4.344,73.333s5.141,24.465,12.939,24.211S304.43,332.032,296.095,319.322Z" transform="translate(-264.475 -264.685)" fill="#2f2e41"/>
      <path id="Path_207" data-name="Path 207" d="M272,334.484l-6.43-2.026a6.964,6.964,0,0,0-4.76,6.509c0,5.043-4.1,76.7-4.1,76.7l13.029,1.211,2.8-36.441Z" transform="translate(-256.707 -275.185)" fill="#2f2e41"/>
      <path id="Path_208" data-name="Path 208" d="M351.23,315.138l-1.282-6.987,3.68-.578,13.322,5.6s11.99,92.183,6.661,94.985-8.927.631-8.927.631-17.527-67.989-14.425-77.179Z" transform="translate(-300.236 -264.246)" fill="#2f2e41"/>
      <path id="Path_209" data-name="Path 209" d="M364.4,318.581l2.274-1.041s6.673-3.478,10.459,3.545,17.108,85.476,17.108,85.476l-10.961,2.168-8.195-28.234Z" transform="translate(-307.015 -268.249)" fill="#2f2e41"/>
    </g>
  </g>
</svg>
