<svg xmlns="http://www.w3.org/2000/svg" width="100.646" height="76.165" viewBox="0 0 100.646 76.165">
  <g id="Page-1" transform="translate(-5 -9)">
    <g id="Artboard-Copy" transform="translate(5 9.001)">
      <path id="quote2" d="M511.615,70.13a15.292,15.292,0,0,0-3.528-5.794,17.357,17.357,0,0,0-6.833-4.265,32.812,32.812,0,0,0-10.927-1.529h-6.069a32.994,32.994,0,0,1,7.986-19.082q6.892-7.859,19.109-13.8L506.414,18a74.418,74.418,0,0,0-27.52,20.072Q467.465,51.321,467.48,64.336q0,13.987,6.637,21.919,6.655,7.92,19.052,7.91a19.738,19.738,0,0,0,13.669-5.244q5.8-5.235,5.808-12.241a20.947,20.947,0,0,0-1.031-6.55m-55.48,0a15.34,15.34,0,0,0-3.533-5.794,17.3,17.3,0,0,0-6.833-4.265,32.763,32.763,0,0,0-10.924-1.529h-6.072a33.027,33.027,0,0,1,7.984-19.082q6.9-7.859,19.112-13.8L450.931,18a74.418,74.418,0,0,0-27.52,20.072Q411.982,51.321,412,64.336c0,9.325,2.2,16.639,6.634,21.919s10.785,7.91,19.052,7.91a19.75,19.75,0,0,0,13.672-5.244q5.8-5.235,5.8-12.241a21.181,21.181,0,0,0-1.028-6.55" transform="translate(-412 -18.001)" fill="#fee715" fill-rule="evenodd"/>
    </g>
  </g>
</svg>
