<svg xmlns="http://www.w3.org/2000/svg" width="33.295" height="39.34" viewBox="0 0 33.295 39.34">
  <path id="iconfinder_stackoverflow_4691589" d="M29.943,35.841v-10.5h3.5v14H1.844v-14H5.335v10.5Zm-21.1-3.5h17.6v-3.5H8.838Zm.425-7.953,17.179,3.588.739-3.393L10.005,21l-.743,3.39ZM11.491,16.1,27.4,23.527l1.48-3.2-15.91-7.425-1.479,3.173V16.1Zm4.45-7.843L29.41,19.495l2.228-2.655L18.17,5.606,15.957,8.257l-.016,0ZM24.64,0,21.778,2.121l10.5,14.1L35.139,14.1,24.637,0Z" transform="translate(-1.844)" fill="#fff"/>
</svg>
